# xmcd
#
# Track frame offsets:
#      150
#      4371
#      21487
#      44709
#      62479
#      79118
#      95266
#      111531
#      126483
#      145064
#      168787
#      187683
# 
# Disc length: 2791 seconds
#
# Revision: 2
# Processed by: cddbd v1.5PL3 Copyright (c) Steve Scherf et al.
#
# Submitted via: FreeRIP 1.21
#
DISCID=a10ae50c
DTITLE=Scooter - No Time to Chill
DYEAR=1998
DGENRE=Rock
TTITLE0=Last Warning
TTITLE1=How Much Is The Fish?
TTITLE2=We Are The Greatest
TTITLE3=Call Me Manana
TTITLE4=Don't Stop
TTITLE5=I Was Made For Lovin' You
TTITLE6=Frequent Traveller
TTITLE7=Eyes Without A Face
TTITLE8=Hands Up!
TTITLE9=Everything's Borrowed
TTITLE10=Expecting More From Ratty
TTITLE11=Time And Space
EXTD=
EXTT0=
EXTT1=
EXTT2=
EXTT3=
EXTT4=
EXTT5=
EXTT6=
EXTT7=
EXTT8=
EXTT9=
EXTT10=
EXTT11=
PLAYORDER=
